<svg width="26" height="30" viewBox="0 0 26 30" fill="none" xmlns="http://www.w3.org/2000/svg">
<mask id="path-1-inside-1_566_819" fill="white">
<path d="M13 10H26V30H13V20H0V0H13V10Z"/>
</mask>
<path d="M13 10H12V11H13V10ZM26 10H27V9H26V10ZM26 30V31H27V30H26ZM13 30H12V31H13V30ZM13 20H14V19H13V20ZM0 20H-1V21H0V20ZM0 0V-1H-1V0H0ZM13 0H14V-1H13V0ZM13 10V11H26V10V9H13V10ZM26 10H25V30H26H27V10H26ZM26 30V29H13V30V31H26V30ZM13 30H14V20H13H12V30H13ZM13 20V19H0V20V21H13V20ZM0 20H1V0H0H-1V20H0ZM0 0V1H13V0V-1H0V0ZM13 0H12V10H13H14V0H13Z" fill="#E1772F" mask="url(#path-1-inside-1_566_819)"/>
</svg>
